<?xml version="1.0" encoding="UTF-8" standalone="no"?>
<!-- Created with Inkscape (http://www.inkscape.org/) -->

<svg
   width="210mm"
   height="297mm"
   viewBox="0 0 210 297"
   version="1.1"
   id="svg5"
   inkscape:version="1.2.2 (732a01da63, 2022-12-09)"
   sodipodi:docname="BackUpLogo.svg"
   xmlns:inkscape="http://www.inkscape.org/namespaces/inkscape"
   xmlns:sodipodi="http://sodipodi.sourceforge.net/DTD/sodipodi-0.dtd"
   xmlns="http://www.w3.org/2000/svg"
   xmlns:svg="http://www.w3.org/2000/svg">
  <sodipodi:namedview
     id="namedview7"
     pagecolor="#ffffff"
     bordercolor="#666666"
     borderopacity="1.0"
     inkscape:showpageshadow="2"
     inkscape:pageopacity="0.0"
     inkscape:pagecheckerboard="0"
     inkscape:deskcolor="#d1d1d1"
     inkscape:document-units="mm"
     showgrid="false"
     showguides="true"
     inkscape:zoom="4"
     inkscape:cx="231.25"
     inkscape:cy="394.75"
     inkscape:window-width="1920"
     inkscape:window-height="1017"
     inkscape:window-x="1358"
     inkscape:window-y="-8"
     inkscape:window-maximized="1"
     inkscape:current-layer="layer2" />
  <defs
     id="defs2">
    <filter
       inkscape:collect="always"
       style="color-interpolation-filters:sRGB"
       id="filter11992"
       x="-0.0069284528"
       y="-0.0084289179"
       width="1.0138569"
       height="1.0168578">
      <feGaussianBlur
         inkscape:collect="always"
         stdDeviation="0.038014973"
         id="feGaussianBlur11994" />
    </filter>
    <filter
       inkscape:collect="always"
       style="color-interpolation-filters:sRGB"
       id="filter11996"
       x="-0.003118861"
       y="-0.0083348343"
       width="1.0062377"
       height="1.0166697">
      <feGaussianBlur
         inkscape:collect="always"
         stdDeviation="0.038014974"
         id="feGaussianBlur11998" />
    </filter>
  </defs>
  <g
     inkscape:label="Capa 1"
     inkscape:groupmode="layer"
     id="layer1"
     style="opacity:1">
    <g
       id="g14205"
       inkscape:export-filename="BackUpLogo.png"
       inkscape:export-xdpi="301"
       inkscape:export-ydpi="301">
      <g
         id="g14186">
        <g
           aria-label="BACK"
           transform="matrix(1.0046751,0,0,0.99534661,0.08565328,0.09677976)"
           id="text113-4"
           style="font-size:13.081px;line-height:1.25;font-family:'Segoe UI Symbol';-inkscape-font-specification:'Segoe UI Symbol';display:inline;mix-blend-mode:normal;fill:#d4d2c2;fill-opacity:1;stroke-width:0.264583;filter:url(#filter11996)">
          <path
             id="path10462-6"
             style="font-stretch:condensed;font-family:Impact;-inkscape-font-specification:'Impact, Condensed';fill:#d4d2c2;fill-opacity:1"
             d="m 35.044351,48.083881 v 8.508326 h 2.689072 v -2.830052 c 0.08887,0.0028 0.169003,0.0082 0.242778,0.01506 v -1.630226 c -0.06185,3.93e-4 -0.140641,0.0019 -0.242778,0.0057 v -2.29945 c 0.276779,0.0043 0.46183,0.02356 0.555509,0.05763 0.09794,0.03406 0.176992,0.117205 0.236605,0.249207 0.05961,0.127744 0.0895,0.353393 0.0895,0.677011 0,0.613169 -0.03614,0.985792 -0.10853,1.117795 -0.06595,0.116376 -0.21223,0.17915 -0.437206,0.189501 v 1.643205 c 0.205345,0.02637 0.341653,0.0708 0.405315,0.134468 0.09368,0.09368 0.140421,0.361885 0.140421,0.804729 v 0.964637 c 0,0.417297 -0.05351,0.679067 -0.159966,0.78552 -0.101469,0.105698 -0.339608,0.164739 -0.713931,0.178079 v 0.0016 h -2.696788 v 0.19054 H 34.809803 V 56.25474 l -1.355338,1.280818 1.356367,1.277702 v -0.591865 h 0.233519 v 0.203518 h 3.110847 c 1.081564,0 1.796742,-0.06186 2.145909,-0.185347 0.349165,-0.123486 0.602673,-0.35308 0.760223,-0.689471 0.161809,-0.336393 0.242778,-0.854017 0.242778,-1.552349 v -0.957888 c 0,-0.672783 -0.110853,-1.171102 -0.332277,-1.49472 -0.22142,-0.327876 -0.643122,-0.561932 -1.26481,-0.702451 0.557816,-0.127744 0.930345,-0.310837 1.117704,-0.549293 0.191613,-0.238453 0.287527,-0.660068 0.287527,-1.264723 0,-0.894206 -0.133967,-1.54147 -0.40223,-1.941734 -0.26826,-0.404521 -0.622023,-0.672727 -1.060609,-0.804729 -0.43433,-0.132003 -1.074796,-0.198327 -1.922162,-0.198327 z" />
          <path
             d="m 46.911868,48.084084 1.539317,10.340889 h -2.752886 l -0.134132,-1.858678 h -0.964468 l -0.15968,1.858678 h -2.784822 l 1.366862,-10.340889 z m -1.424347,6.649083 q -0.204391,-1.756482 -0.408781,-4.336914 -0.408782,2.963664 -0.510977,4.336914 z"
             style="font-stretch:condensed;font-family:Impact;-inkscape-font-specification:'Impact, Condensed';fill:#d4d2c2;fill-opacity:1"
             id="path10464-9" />
          <path
             d="M 55.189688,52.593452 H 52.500674 V 50.79226 q 0,-0.785627 -0.08942,-0.977243 -0.08303,-0.198003 -0.376845,-0.198003 -0.332135,0 -0.421556,0.236326 -0.08942,0.236327 -0.08942,1.021954 v 4.803179 q 0,0.753691 0.08942,0.98363 0.08942,0.22994 0.402395,0.22994 0.300198,0 0.389619,-0.22994 0.09581,-0.229939 0.09581,-1.079438 v -1.296603 h 2.689014 v 0.402394 q 0,1.603189 -0.229939,2.273846 -0.223552,0.670657 -1.002791,1.175246 -0.772853,0.50459 -1.909775,0.50459 -1.181634,0 -1.948099,-0.427943 -0.766464,-0.427943 -1.015566,-1.181634 -0.249101,-0.760077 -0.249101,-2.280233 v -3.021149 q 0,-1.117761 0.07665,-1.673448 0.07665,-0.562074 0.453492,-1.079438 0.383232,-0.517364 1.053889,-0.811175 0.677044,-0.300199 1.552091,-0.300199 1.188021,0 1.960873,0.459879 0.772852,0.459879 1.015566,1.149697 0.242713,0.683431 0.242713,2.133327 z"
             style="font-stretch:condensed;font-family:Impact;-inkscape-font-specification:'Impact, Condensed';fill:#d4d2c2;fill-opacity:1"
             id="path10466-0" />
          <path
             d="m 62.560526,48.084084 -1.539317,4.669049 1.686223,5.67184 h -2.778435 l -1.085825,-4.432722 v 4.432722 H 56.154157 V 48.084084 h 2.689015 v 4.017553 l 1.194407,-4.017553 z"
             style="font-stretch:condensed;font-family:Impact;-inkscape-font-specification:'Impact, Condensed';fill:#d4d2c2;fill-opacity:1"
             id="path10468-8" />
        </g>
        <g
           aria-label="UP"
           transform="matrix(1.000253,0,0,0.99974707,0.0896657,0.10362938)"
           id="text1942-9"
           style="font-size:12.918px;line-height:1.25;font-family:Impact;-inkscape-font-specification:Impact;mix-blend-mode:normal;fill:#d4d2c2;fill-opacity:1;stroke-width:0.264583;filter:url(#filter11992)">
          <path
             d="m 69.878375,50.003604 v 4.670588 c 0,0.773734 -0.02523,1.318292 -0.07569,1.633673 -0.05046,0.311175 -0.19974,0.632864 -0.44784,0.965065 -0.2481,0.327996 -0.576096,0.578198 -0.983989,0.750607 -0.403687,0.168203 -0.880964,0.252304 -1.431829,0.252304 -0.609736,0 -1.147986,-0.100922 -1.61475,-0.302765 -0.466763,-0.201844 -0.815785,-0.464662 -1.047064,-0.788453 -0.231279,-0.323791 -0.367944,-0.664402 -0.409995,-1.021834 -0.04205,-0.361637 -0.06308,-1.118551 -0.06308,-2.270742 v -4.914658 h 0.437149 v -0.196355 h -0.782061 l 1.672666,-1.329351 1.71186,1.329351 h -0.882741 v 0.196355 h 0.498634 v 6.529408 c 0,0.445739 0.02313,0.731684 0.06938,0.857836 0.05046,0.121947 0.149279,0.182921 0.296458,0.182921 0.168203,0 0.275433,-0.06728 0.321689,-0.201844 0.05046,-0.138767 0.07569,-0.462558 0.07569,-0.971373 v -5.370733 z"
             id="path2670-0"
             sodipodi:nodetypes="cscccssscscccccccccscscscc"
             style="fill:#d4d2c2;fill-opacity:1" />
          <path
             d="m 70.906516,47.84935 h 2.67443 q 1.08491,0 1.665211,0.170306 0.586609,0.170305 0.876759,0.491994 0.296458,0.321688 0.39738,0.782144 0.107229,0.454149 0.107229,1.412907 v 0.889374 q 0,0.97768 -0.201843,1.425521 -0.201844,0.447841 -0.744299,0.68753 -0.536148,0.23969 -1.406599,0.23969 h -0.712761 v 4.112566 h -2.655507 z m 2.655507,1.74721 v 2.598738 q 0.113537,0.0063 0.195536,0.0063 0.365842,0 0.50461,-0.176613 0.145075,-0.182921 0.145075,-0.750607 v -0.838913 q 0,-0.523532 -0.163998,-0.681223 -0.163998,-0.15769 -0.681223,-0.15769 z"
             id="path2672-7"
             style="fill:#d4d2c2;fill-opacity:1" />
        </g>
      </g>
      <g
         aria-label="BACK"
         transform="scale(1.0046751,0.99534661)"
         id="text113"
         style="font-size:13.081px;line-height:1.25;font-family:'Segoe UI Symbol';-inkscape-font-specification:'Segoe UI Symbol';display:inline;fill:#e56751;stroke-width:0.264583">
        <path
           id="path10462"
           style="font-stretch:condensed;font-family:Impact;-inkscape-font-specification:'Impact, Condensed'"
           d="m 35.044351,48.083881 v 8.508326 h 2.689072 v -2.830052 c 0.08887,0.0028 0.169003,0.0082 0.242778,0.01506 v -1.630226 c -0.06185,3.93e-4 -0.140641,0.0019 -0.242778,0.0057 v -2.29945 c 0.276779,0.0043 0.46183,0.02356 0.555509,0.05763 0.09794,0.03406 0.176992,0.117205 0.236605,0.249207 0.05961,0.127744 0.0895,0.353393 0.0895,0.677011 0,0.613169 -0.03614,0.985792 -0.10853,1.117795 -0.06595,0.116376 -0.21223,0.17915 -0.437206,0.189501 v 1.643205 c 0.205345,0.02637 0.341653,0.0708 0.405315,0.134468 0.09368,0.09368 0.140421,0.361885 0.140421,0.804729 v 0.964637 c 0,0.417297 -0.05351,0.679067 -0.159966,0.78552 -0.101469,0.105698 -0.339608,0.164739 -0.713931,0.178079 v 0.0016 h -2.696788 v 0.19054 H 34.809803 V 56.25474 l -1.355338,1.280818 1.356367,1.277702 v -0.591865 h 0.233519 v 0.203518 h 3.110847 c 1.081564,0 1.796742,-0.06186 2.145909,-0.185347 0.349165,-0.123486 0.602673,-0.35308 0.760223,-0.689471 0.161809,-0.336393 0.242778,-0.854017 0.242778,-1.552349 v -0.957888 c 0,-0.672783 -0.110853,-1.171102 -0.332277,-1.49472 -0.22142,-0.327876 -0.643122,-0.561932 -1.26481,-0.702451 0.557816,-0.127744 0.930345,-0.310837 1.117704,-0.549293 0.191613,-0.238453 0.287527,-0.660068 0.287527,-1.264723 0,-0.894206 -0.133967,-1.54147 -0.40223,-1.941734 -0.26826,-0.404521 -0.622023,-0.672727 -1.060609,-0.804729 -0.43433,-0.132003 -1.074796,-0.198327 -1.922162,-0.198327 z"
           sodipodi:insensitive="true" />
        <path
           d="m 46.911868,48.084084 1.539317,10.340889 h -2.752886 l -0.134132,-1.858678 h -0.964468 l -0.15968,1.858678 h -2.784822 l 1.366862,-10.340889 z m -1.424347,6.649083 q -0.204391,-1.756482 -0.408781,-4.336914 -0.408782,2.963664 -0.510977,4.336914 z"
           style="font-stretch:condensed;font-family:Impact;-inkscape-font-specification:'Impact, Condensed'"
           id="path10464"
           sodipodi:insensitive="true" />
        <path
           d="M 55.189688,52.593452 H 52.500674 V 50.79226 q 0,-0.785627 -0.08942,-0.977243 -0.08303,-0.198003 -0.376845,-0.198003 -0.332135,0 -0.421556,0.236326 -0.08942,0.236327 -0.08942,1.021954 v 4.803179 q 0,0.753691 0.08942,0.98363 0.08942,0.22994 0.402395,0.22994 0.300198,0 0.389619,-0.22994 0.09581,-0.229939 0.09581,-1.079438 v -1.296603 h 2.689014 v 0.402394 q 0,1.603189 -0.229939,2.273846 -0.223552,0.670657 -1.002791,1.175246 -0.772853,0.50459 -1.909775,0.50459 -1.181634,0 -1.948099,-0.427943 -0.766464,-0.427943 -1.015566,-1.181634 -0.249101,-0.760077 -0.249101,-2.280233 v -3.021149 q 0,-1.117761 0.07665,-1.673448 0.07665,-0.562074 0.453492,-1.079438 0.383232,-0.517364 1.053889,-0.811175 0.677044,-0.300199 1.552091,-0.300199 1.188021,0 1.960873,0.459879 0.772852,0.459879 1.015566,1.149697 0.242713,0.683431 0.242713,2.133327 z"
           style="font-stretch:condensed;font-family:Impact;-inkscape-font-specification:'Impact, Condensed'"
           id="path10466"
           sodipodi:insensitive="true" />
        <path
           d="m 62.560526,48.084084 -1.539317,4.669049 1.686223,5.67184 h -2.778435 l -1.085825,-4.432722 v 4.432722 H 56.154157 V 48.084084 h 2.689015 v 4.017553 l 1.194407,-4.017553 z"
           style="font-stretch:condensed;font-family:Impact;-inkscape-font-specification:'Impact, Condensed'"
           id="path10468"
           sodipodi:insensitive="true" />
      </g>
      <g
         aria-label="UP"
         transform="scale(1.000253,0.99974707)"
         id="text1942"
         style="font-size:12.918px;line-height:1.25;font-family:Impact;-inkscape-font-specification:Impact;display:inline;fill:#e1923d;stroke-width:0.264583">
        <path
           d="m 69.878375,50.003604 v 4.670588 c 0,0.773734 -0.02523,1.318292 -0.07569,1.633673 -0.05046,0.311175 -0.19974,0.632864 -0.44784,0.965065 -0.2481,0.327996 -0.576096,0.578198 -0.983989,0.750607 -0.403687,0.168203 -0.880964,0.252304 -1.431829,0.252304 -0.609736,0 -1.147986,-0.100922 -1.61475,-0.302765 -0.466763,-0.201844 -0.815785,-0.464662 -1.047064,-0.788453 -0.231279,-0.323791 -0.367944,-0.664402 -0.409995,-1.021834 -0.04205,-0.361637 -0.06308,-1.118551 -0.06308,-2.270742 v -4.914658 h 0.437149 v -0.196355 h -0.782061 l 1.672666,-1.329351 1.71186,1.329351 h -0.882741 v 0.196355 h 0.498634 v 6.529408 c 0,0.445739 0.02313,0.731684 0.06938,0.857836 0.05046,0.121947 0.149279,0.182921 0.296458,0.182921 0.168203,0 0.275433,-0.06728 0.321689,-0.201844 0.05046,-0.138767 0.07569,-0.462558 0.07569,-0.971373 v -5.370733 z"
           id="path2670"
           sodipodi:nodetypes="cscccssscscccccccccscscscc"
           sodipodi:insensitive="true" />
        <path
           d="m 70.906516,47.84935 h 2.67443 q 1.08491,0 1.665211,0.170306 0.586609,0.170305 0.876759,0.491994 0.296458,0.321688 0.39738,0.782144 0.107229,0.454149 0.107229,1.412907 v 0.889374 q 0,0.97768 -0.201843,1.425521 -0.201844,0.447841 -0.744299,0.68753 -0.536148,0.23969 -1.406599,0.23969 h -0.712761 v 4.112566 h -2.655507 z m 2.655507,1.74721 v 2.598738 q 0.113537,0.0063 0.195536,0.0063 0.365842,0 0.50461,-0.176613 0.145075,-0.182921 0.145075,-0.750607 v -0.838913 q 0,-0.523532 -0.163998,-0.681223 -0.163998,-0.15769 -0.681223,-0.15769 z"
           id="path2672"
           sodipodi:insensitive="true" />
      </g>
    </g>
  </g>
  <g
     inkscape:groupmode="layer"
     id="layer2"
     inkscape:label="Capa 2">
    <rect
       style="font-variation-settings:normal;opacity:1;vector-effect:none;fill:#e56751;fill-opacity:1;stroke-width:0.264583;stroke-linecap:butt;stroke-linejoin:miter;stroke-miterlimit:4;stroke-dasharray:none;stroke-dashoffset:0;stroke-opacity:1;-inkscape-stroke:none;paint-order:stroke fill markers;stop-color:#000000;stop-opacity:1"
       id="rect548"
       width="18.851561"
       height="18.851561"
       x="52.064793"
       y="89.186714"
       ry="1.9843749"
       rx="1.9843749"
       inkscape:export-filename="icon.png"
       inkscape:export-xdpi="582.06329"
       inkscape:export-ydpi="582.06329" />
    <rect
       style="font-variation-settings:normal;vector-effect:none;fill:#e56751;fill-opacity:1;stroke-width:0.264583;stroke-linecap:butt;stroke-linejoin:miter;stroke-miterlimit:4;stroke-dasharray:none;stroke-dashoffset:0;stroke-opacity:1;-inkscape-stroke:none;paint-order:stroke fill markers;stop-color:#000000"
       id="rect548-4"
       width="18.851561"
       height="18.851561"
       x="79.0112"
       y="89.263802"
       ry="0"
       rx="0"
       inkscape:export-filename="background.png"
       inkscape:export-xdpi="582.06329"
       inkscape:export-ydpi="582.06329" />
    <path
       d="m 70.047814,71.414766 v 4.669406 c 0,0.773539 -0.02524,1.317959 -0.07571,1.63326 -0.05047,0.311096 -0.19979,0.632704 -0.447953,0.964821 -0.248163,0.327913 -0.576242,0.578052 -0.984238,0.750417 -0.403789,0.168161 -0.881187,0.25224 -1.432191,0.25224 -0.60989,0 -1.148276,-0.100896 -1.615159,-0.302688 -0.466881,-0.201793 -0.815991,-0.464545 -1.047328,-0.788254 -0.231338,-0.323709 -0.368038,-0.664234 -0.410099,-1.021575 -0.04206,-0.361546 -0.0631,-1.118268 -0.0631,-2.270168 V 70.38881 h 0.437259 v -0.196305 h -0.782258 l 1.673089,-1.329015 1.712293,1.329015 h -0.882964 v 0.196305 h 0.49876 v 6.527757 c 0,0.445626 0.02314,0.731499 0.0694,0.857619 0.05047,0.121916 0.149317,0.182874 0.296533,0.182874 0.168246,0 0.275503,-0.06726 0.321771,-0.201793 0.05047,-0.138731 0.07571,-0.462441 0.07571,-0.971127 v -5.369374 z"
       id="path2670-9"
       sodipodi:nodetypes="cscccssscscccccccccscscscc"
       style="font-size:12.918px;line-height:1.25;font-family:Impact;-inkscape-font-specification:Impact;display:inline;fill:#e1923d;stroke-width:0.264583"
       inkscape:label="U" />
    <path
       id="path10462-8"
       style="font-stretch:condensed;font-size:13.081px;line-height:1.25;font-family:Impact;-inkscape-font-specification:'Impact, Condensed';display:inline;fill:#e56751;stroke-width:0.264583"
       d="m 56.111333,69.09749 v 8.468733 h 2.701644 V 74.74934 c 0.08929,0.0028 0.169793,0.0082 0.243913,0.01499 v -1.622639 c -0.06214,3.91e-4 -0.141299,0.0019 -0.243913,0.0057 v -2.28875 c 0.278072,0.0043 0.463989,0.02345 0.558106,0.05736 0.0984,0.0339 0.177819,0.11666 0.237711,0.248047 0.05989,0.12715 0.08992,0.351749 0.08992,0.673861 0,0.610316 -0.03631,0.981205 -0.109037,1.112593 -0.06626,0.115835 -0.213222,0.178317 -0.43925,0.18862 v 1.635558 c 0.206305,0.02625 0.34325,0.07047 0.40721,0.133842 0.09412,0.09324 0.141077,0.360201 0.141077,0.800985 v 0.960148 c 0,0.415355 -0.05376,0.675907 -0.160714,0.781864 -0.101943,0.105207 -0.341195,0.163973 -0.717268,0.177251 v 0.0016 h -2.709396 v 0.189654 H 55.87569 v -0.589665 l -1.361674,1.274858 1.362708,1.271757 v -0.589111 h 0.234611 v 0.202571 h 3.12539 c 1.086621,0 1.805142,-0.06157 2.155942,-0.184485 0.350797,-0.122911 0.60549,-0.351437 0.763777,-0.686262 0.162565,-0.334828 0.243913,-0.850043 0.243913,-1.545126 v -0.95343 c 0,-0.669652 -0.111371,-1.165653 -0.333831,-1.487765 -0.222455,-0.32635 -0.646128,-0.559317 -1.270723,-0.699182 0.560424,-0.127149 0.934695,-0.30939 1.12293,-0.546737 0.192508,-0.237343 0.288871,-0.656996 0.288871,-1.258838 0,-0.890044 -0.134593,-1.534296 -0.404111,-1.932698 -0.269514,-0.402638 -0.624931,-0.669596 -1.065567,-0.800984 -0.436361,-0.131389 -1.079821,-0.197404 -1.931148,-0.197404 z"
       inkscape:label="B" />
    <path
       d="m 68.481257,95.623671 v 4.639879 c 0,0.76865 -0.02625,1.30963 -0.07874,1.62293 -0.05249,0.30912 -0.20779,0.6287 -0.465892,0.95872 -0.258102,0.32583 -0.599319,0.57439 -1.023655,0.74567 -0.419959,0.1671 -0.916476,0.25065 -1.489546,0.25065 -0.634315,0 -1.194263,-0.10027 -1.679843,-0.30078 -0.485578,-0.20051 -0.848669,-0.46162 -1.089271,-0.78327 -0.240602,-0.32166 -0.382777,-0.66003 -0.426522,-1.01512 -0.04374,-0.35925 -0.06562,-1.11118 -0.06562,-2.255806 v -4.882341 h 0.454771 v -0.195064 h -0.813588 l 1.740092,-1.32061 1.780866,1.32061 h -0.918324 v 0.195064 h 0.518734 v 6.486477 c 0,0.44281 0.02407,0.72687 0.07218,0.85218 0.05249,0.12116 0.155297,0.18173 0.308408,0.18173 0.174984,0 0.286537,-0.0669 0.334657,-0.20052 0.05249,-0.13785 0.07875,-0.45951 0.07875,-0.96497 v -5.335429 z"
       id="path2670-9-2"
       sodipodi:nodetypes="cscccssscscccccccccscscscc"
       style="font-size:12.918px;line-height:1.25;font-family:Impact;-inkscape-font-specification:Impact;display:inline;fill:#ffffff;fill-opacity:1;stroke-width:0.264583"
       inkscape:label="U" />
    <path
       id="path10462-8-6"
       style="font-stretch:condensed;font-size:13.081px;line-height:1.25;font-family:Impact;-inkscape-font-specification:'Impact, Condensed';display:inline;fill:#ffffff;fill-opacity:1;stroke-width:0.264584"
       d="m 55.265734,94.207792 v 7.715218 h 2.576119 v -2.566249 c 0.08514,0.0026 0.161905,0.0075 0.232581,0.01365 v -1.478262 c -0.05925,3.56e-4 -0.134734,0.0017 -0.232581,0.0052 v -2.085105 c 0.265153,0.0039 0.442431,0.02137 0.532176,0.05226 0.09383,0.03088 0.169557,0.10628 0.226666,0.225976 0.05711,0.115837 0.08575,0.320452 0.08575,0.613903 0,0.556013 -0.03462,0.893902 -0.103972,1.013599 -0.06318,0.105528 -0.203315,0.162451 -0.418842,0.171837 v 1.490032 c 0.19672,0.02392 0.327302,0.0642 0.388291,0.121934 0.08975,0.08494 0.134523,0.328151 0.134523,0.729705 v 0.87472 c 0,0.3784 -0.05126,0.61577 -0.153248,0.7123 -0.09721,0.0958 -0.325342,0.14939 -0.683942,0.16148 v 0.002 h -2.583512 v 0.17277 h -0.224697 v -0.5372 l -1.298408,1.16143 1.299394,1.1586 v -0.53669 h 0.22371 v 0.18455 h 2.980178 c 1.036134,0 1.721272,-0.0561 2.055772,-0.16808 0.334498,-0.11197 0.577358,-0.32017 0.728291,-0.6252 0.155012,-0.30503 0.23258,-0.7744 0.23258,-1.40764 v -0.8686 c 0,-0.610061 -0.106197,-1.061932 -0.31832,-1.355383 -0.212119,-0.297312 -0.616107,-0.509551 -1.211683,-0.636972 0.534386,-0.115835 0.891267,-0.281861 1.070757,-0.49809 0.183563,-0.216225 0.275449,-0.598539 0.275449,-1.146831 0,-0.810851 -0.128339,-1.39778 -0.385335,-1.760734 -0.256992,-0.366813 -0.595896,-0.610018 -1.016059,-0.729715 -0.416087,-0.119698 -1.02965,-0.17984 -1.841423,-0.17984 z"
       inkscape:label="B" />
    <circle
       style="font-variation-settings:normal;opacity:1;vector-effect:none;fill:#ffffff;fill-opacity:1;stroke-width:0.264583;stroke-linecap:butt;stroke-linejoin:miter;stroke-miterlimit:4;stroke-dasharray:none;stroke-dashoffset:0;stroke-opacity:1;-inkscape-stroke:none;paint-order:stroke fill markers;stop-color:#000000;stop-opacity:1"
       id="path1501"
       cx="55.00407"
       cy="105.67369"
       r="0.88867116" />
    <circle
       style="font-variation-settings:normal;opacity:1;vector-effect:none;fill:#ffffff;fill-opacity:1;stroke-width:0.264583;stroke-linecap:butt;stroke-linejoin:miter;stroke-miterlimit:4;stroke-dasharray:none;stroke-dashoffset:0;stroke-opacity:1;-inkscape-stroke:none;paint-order:stroke fill markers;stop-color:#000000;stop-opacity:1"
       id="circle1503"
       cx="67.305153"
       cy="105.67369"
       r="0.88867116" />
    <circle
       style="font-variation-settings:normal;opacity:1;vector-effect:none;fill:#ffffff;fill-opacity:1;stroke-width:0.264583;stroke-linecap:butt;stroke-linejoin:miter;stroke-miterlimit:4;stroke-dasharray:none;stroke-dashoffset:0;stroke-opacity:1;-inkscape-stroke:none;paint-order:stroke fill markers;stop-color:#000000;stop-opacity:1"
       id="circle1505"
       cx="57.464287"
       cy="105.67369"
       r="0.88867116" />
    <circle
       style="font-variation-settings:normal;opacity:1;vector-effect:none;fill:#ffffff;fill-opacity:1;stroke-width:0.264583;stroke-linecap:butt;stroke-linejoin:miter;stroke-miterlimit:4;stroke-dasharray:none;stroke-dashoffset:0;stroke-opacity:1;-inkscape-stroke:none;paint-order:stroke fill markers;stop-color:#000000;stop-opacity:1"
       id="circle1507"
       cx="59.924503"
       cy="105.67369"
       r="0.88867116" />
    <circle
       style="font-variation-settings:normal;opacity:1;vector-effect:none;fill:#ffffff;fill-opacity:1;stroke-width:0.264583;stroke-linecap:butt;stroke-linejoin:miter;stroke-miterlimit:4;stroke-dasharray:none;stroke-dashoffset:0;stroke-opacity:1;-inkscape-stroke:none;paint-order:stroke fill markers;stop-color:#000000;stop-opacity:1"
       id="circle1509"
       cx="62.38472"
       cy="105.67369"
       r="0.88867116" />
    <circle
       style="font-variation-settings:normal;opacity:1;vector-effect:none;fill:#ffffff;fill-opacity:1;stroke-width:0.264583;stroke-linecap:butt;stroke-linejoin:miter;stroke-miterlimit:4;stroke-dasharray:none;stroke-dashoffset:0;stroke-opacity:1;-inkscape-stroke:none;paint-order:stroke fill markers;stop-color:#000000;stop-opacity:1"
       id="circle1511"
       cx="64.84494"
       cy="105.67369"
       r="0.88867116" />
    <circle
       style="font-variation-settings:normal;opacity:1;vector-effect:none;fill:#ffffff;fill-opacity:1;stroke-width:0.264583;stroke-linecap:butt;stroke-linejoin:miter;stroke-miterlimit:4;stroke-dasharray:none;stroke-dashoffset:0;stroke-opacity:1;-inkscape-stroke:none;paint-order:stroke fill markers;stop-color:#000000;stop-opacity:1"
       id="circle1513"
       cx="55.00407"
       cy="91.568092"
       r="0.88867116" />
    <circle
       style="font-variation-settings:normal;opacity:1;vector-effect:none;fill:#ffffff;fill-opacity:1;stroke-width:0.264583;stroke-linecap:butt;stroke-linejoin:miter;stroke-miterlimit:4;stroke-dasharray:none;stroke-dashoffset:0;stroke-opacity:1;-inkscape-stroke:none;paint-order:stroke fill markers;stop-color:#000000;stop-opacity:1"
       id="circle1515"
       cx="67.305153"
       cy="91.568092"
       r="0.88867116" />
    <circle
       style="font-variation-settings:normal;opacity:1;vector-effect:none;fill:#ffffff;fill-opacity:1;stroke-width:0.264583;stroke-linecap:butt;stroke-linejoin:miter;stroke-miterlimit:4;stroke-dasharray:none;stroke-dashoffset:0;stroke-opacity:1;-inkscape-stroke:none;paint-order:stroke fill markers;stop-color:#000000;stop-opacity:1"
       id="circle1517"
       cx="57.464287"
       cy="91.568092"
       r="0.88867116" />
    <circle
       style="font-variation-settings:normal;opacity:1;vector-effect:none;fill:#ffffff;fill-opacity:1;stroke-width:0.264583;stroke-linecap:butt;stroke-linejoin:miter;stroke-miterlimit:4;stroke-dasharray:none;stroke-dashoffset:0;stroke-opacity:1;-inkscape-stroke:none;paint-order:stroke fill markers;stop-color:#000000;stop-opacity:1"
       id="circle1519"
       cx="59.924503"
       cy="91.568092"
       r="0.88867116" />
    <circle
       style="font-variation-settings:normal;opacity:1;vector-effect:none;fill:#ffffff;fill-opacity:1;stroke-width:0.264583;stroke-linecap:butt;stroke-linejoin:miter;stroke-miterlimit:4;stroke-dasharray:none;stroke-dashoffset:0;stroke-opacity:1;-inkscape-stroke:none;paint-order:stroke fill markers;stop-color:#000000;stop-opacity:1"
       id="circle1521"
       cx="62.38472"
       cy="91.568092"
       r="0.88867116" />
    <circle
       style="font-variation-settings:normal;opacity:1;vector-effect:none;fill:#ffffff;fill-opacity:1;stroke-width:0.264583;stroke-linecap:butt;stroke-linejoin:miter;stroke-miterlimit:4;stroke-dasharray:none;stroke-dashoffset:0;stroke-opacity:1;-inkscape-stroke:none;paint-order:stroke fill markers;stop-color:#000000;stop-opacity:1"
       id="circle1523"
       cx="64.84494"
       cy="91.568092"
       r="0.88867116" />
  </g>
</svg>
